<svg width="166" height="69" viewBox="0 0 106 39" fill="none" xmlns="http://www.w3.org/2000/svg">
<path d="M65.8361 24.6363C64.3962 23.2005 63.6748 21.161 63.6719 18.5177V8.66861H68.6213V18.3645C68.6213 21.209 69.73 22.6313 71.9475 22.6313C74.165 22.6313 75.2634 21.209 75.2427 18.3645V8.66861H80.1211V18.5177C80.1211 21.158 79.4012 23.1975 77.9613 24.6363C76.5214 26.075 74.5006 26.7944 71.8987 26.7944C69.2969 26.7944 67.276 26.075 65.8361 24.6363ZM93.7498 9.46158C94.8642 9.93254 95.8105 10.738 96.462 11.7703C97.1135 12.8025 97.4391 14.0123 97.3953 15.2377C97.4387 16.4596 97.1125 17.6656 96.4607 18.6935C95.8089 19.7214 94.8628 20.5217 93.7498 20.9868C92.4469 21.5496 91.0406 21.8231 89.6253 21.7888H86.574V26.4385H81.629V8.66861H89.612C91.031 8.63174 92.4415 8.90205 93.7498 9.46158ZM91.6254 17.1616C91.8873 16.9207 92.0926 16.6232 92.2261 16.291C92.3597 15.9588 92.4181 15.6004 92.3971 15.2422C92.4175 14.8827 92.3589 14.5231 92.2254 14.1896C92.0919 13.856 91.887 13.5568 91.6254 13.3138C90.9669 12.8051 90.1489 12.557 89.3237 12.6155H86.574V17.8329H89.3237C90.1449 17.8923 90.9603 17.6544 91.6254 17.1616Z" fill="#3F3F3F"/>
<path d="M17.833 12.6516H12.4622V8.66873H28.131V12.6516H22.7824V26.4386H17.833V12.6516ZM43.1123 22.5638V26.4476H29.0623V8.66873H42.7796V12.5525H33.9585V15.5487H41.733V19.3063H33.9585V22.5548L43.1123 22.5638ZM56.1422 9.49775C57.2566 9.96871 58.2029 10.7742 58.8544 11.8064C59.5059 12.8387 59.8315 14.0485 59.7877 15.2739C59.831 16.4957 59.5049 17.7018 58.8531 18.7297C58.2013 19.7575 57.2552 20.5579 56.1422 21.0229C54.8393 21.5858 53.433 21.8592 52.0177 21.8249H48.962V26.4386H44.017V8.66873H51.9999C53.4189 8.63187 54.8294 8.90218 56.1377 9.46171L56.1422 9.49775ZM54.0178 17.1932C54.2797 16.9524 54.4849 16.6549 54.6185 16.3227C54.7521 15.9905 54.8105 15.6321 54.7895 15.2739C54.8099 14.9144 54.7513 14.5548 54.6178 14.2212C54.4843 13.8877 54.2794 13.5885 54.0178 13.3455C53.3625 12.8245 52.5423 12.5649 51.7116 12.6156H48.962V17.833H51.7116C52.5329 17.8924 53.3482 17.6546 54.0134 17.1617L54.0178 17.1932ZM14.1032 18.1349C13.4783 17.4527 12.701 16.9335 11.8369 16.621C10.7579 16.2416 9.65381 15.9405 8.53286 15.7199C7.65958 15.5612 6.80178 15.3245 5.96946 15.0125C5.74547 14.9464 5.54811 14.8093 5.40613 14.6213C5.26414 14.4333 5.18493 14.2042 5.18003 13.9673C5.18249 13.7377 5.24656 13.5131 5.36535 13.3178C5.48414 13.1225 5.65315 12.9638 5.85415 12.8589C6.51363 12.5155 7.25229 12.3598 7.9918 12.4083C8.76817 12.3799 9.54487 12.4541 10.3024 12.6291L10.4133 8.66423C9.58838 8.66423 8.78566 8.66423 8.01841 8.66423C6.57031 8.6235 5.12838 8.87147 3.77415 9.39412C2.73593 9.78979 1.83204 10.4812 1.17083 11.3856C0.589411 12.2053 0.278861 13.1912 0.283837 14.2015C0.23283 15.2346 0.572349 16.2484 1.23292 17.0355C1.85228 17.7273 2.63098 18.2522 3.49918 18.5629C4.57421 18.9354 5.67196 19.2364 6.78549 19.464C7.67244 19.6301 8.54242 19.879 9.38438 20.2074C9.6158 20.2763 9.81964 20.4182 9.96636 20.6126C10.1131 20.807 10.1951 21.0438 10.2004 21.2888C10.2004 22.2169 9.25428 22.681 7.36204 22.681C6.3334 22.679 5.31036 22.5272 4.32409 22.2304C3.37036 21.9482 2.45988 21.5328 1.61876 20.9959L0 24.5598C0.995583 25.1943 2.09049 25.6514 3.23752 25.9115C4.58003 26.2559 5.95965 26.4284 7.3443 26.4251C8.78917 26.4646 10.2274 26.2119 11.5752 25.6817C12.6131 25.2853 13.52 24.5998 14.1919 23.7037C14.7723 22.8955 15.0831 21.9198 15.0789 20.9193C15.1279 19.8881 14.7795 18.878 14.1076 18.1033L14.1032 18.1349Z" fill="#3F3F3F"/>
<path d="M94.0404 0H106.002V5.73556L88.4258 5.70853L94.0404 0Z" fill="#DA0669"/>
<path d="M106.002 5.71751V12.1289L100.383 17.8374V5.7085L106.002 5.71751Z" fill="url(#paint0_linear_1292_5255)"/>
<path d="M19.5123 36.7337H14.7447L13.7602 38.9865H12.4297L16.4744 29.9124H17.7383L21.7963 38.9865H20.4658L19.5123 36.7337ZM19.0688 35.693L17.1174 31.2505L15.1927 35.693H19.0688Z" fill="#606060"/>
<path d="M26.9688 29.9259H30.734C31.6098 29.906 32.4773 30.1023 33.262 30.4982C33.9687 30.8546 34.5598 31.4098 34.965 32.0976C35.3607 32.8212 35.5683 33.6353 35.5683 34.463C35.5683 35.2908 35.3607 36.1049 34.965 36.8284C34.5612 37.5174 33.9697 38.0729 33.262 38.4279C32.4813 38.8216 31.6187 39.0179 30.7473 39.0001H26.9688V29.9259ZM30.6586 37.8737C31.3206 37.8802 31.9744 37.7257 32.5657 37.4232C33.0936 37.1566 33.5341 36.7403 33.8341 36.2247C34.1279 35.6782 34.2819 35.0655 34.2819 34.4428C34.2819 33.82 34.1279 33.2073 33.8341 32.6608C33.5344 32.1439 33.0939 31.7261 32.5657 31.4578C31.9744 31.1553 31.3206 31.0008 30.6586 31.0073H28.246V37.8737H30.6586Z" fill="#606060"/>
<path d="M47.8193 37.8736V38.9999H41.3398V29.9258H47.6419V31.0522H42.6127V33.8411H47.092V34.945H42.6127V37.8736H47.8193Z" fill="#606060"/>
<path d="M61.991 38.9999V32.3903L58.7624 37.9006H58.1725L54.935 32.4399V38.9999H53.7109V29.9258H54.7576L58.483 36.3056L62.1595 29.9258H63.2062V38.9999H61.991Z" fill="#606060"/>
<path d="M69.7266 29.9258H71.0038V38.9999H69.7266V29.9258Z" fill="#606060"/>
<path d="M83.2011 36.7337H78.4557L77.4711 38.9865H76.1406L80.1853 29.9124H81.4493L85.5073 38.9865H84.1768L83.2011 36.7337ZM82.7576 35.693L80.8328 31.2505L78.9036 35.693H82.7576Z" fill="#606060"/>
<defs>
<linearGradient id="paint0_linear_1292_5255" x1="103.195" y1="17.7293" x2="103.195" y2="5.39311" gradientUnits="userSpaceOnUse">
<stop stop-color="#DA0669"/>
<stop offset="0.27" stop-color="#DA0669"/>
<stop offset="0.92" stop-color="#980669"/>
</linearGradient>
</defs>
</svg>
